<?xml version="1.0" standalone="no"?>
<!DOCTYPE svg PUBLIC "-//W3C//DTD SVG 20010904//EN"
 "http://www.w3.org/TR/2001/REC-SVG-20010904/DTD/svg10.dtd">
<svg version="1.0" xmlns="http://www.w3.org/2000/svg"
 width="600.000000pt" height="578.000000pt" viewBox="0 0 600.000000 578.000000"
 preserveAspectRatio="xMidYMid meet">

<g transform="translate(0.000000,578.000000) scale(0.100000,-0.100000)"
fill="#000000" stroke="none">
<path d="M3558 4793 c-16 -4 -16 -7 -3 -33 33 -64 10 -131 -58 -167 -18 -9
-119 -51 -225 -93 -106 -42 -194 -79 -195 -82 -1 -4 24 -47 56 -96 l58 -91
-31 -221 c-17 -123 -30 -223 -28 -225 2 -1 58 -33 126 -70 l123 -67 122 67
c67 37 123 69 125 70 2 2 -4 30 -12 63 -9 33 -16 65 -16 71 0 7 33 11 97 11
l96 0 -6 114 c-7 121 -6 126 43 126 10 0 21 4 24 9 3 5 -15 62 -40 127 l-45
118 32 62 c28 55 31 70 27 126 -5 80 -30 118 -101 151 -51 25 -135 39 -169 30z
m111 -459 c38 -8 39 -23 6 -81 -18 -30 -32 -43 -48 -43 -42 1 -147 58 -147 81
0 4 19 14 43 23 71 26 98 29 146 20z"/>
<path d="M845 3755 c-25 -58 -36 -166 -25 -249 29 -227 167 -453 469 -771 270
-283 366 -430 427 -651 30 -110 28 -379 -3 -460 -10 -27 24 -14 203 75 343
171 709 410 968 633 37 32 70 58 71 56 2 -2 21 -77 43 -168 44 -182 138 -522
231 -838 l60 -204 -31 -56 c-27 -46 -32 -68 -36 -137 -3 -52 0 -85 6 -89 6 -4
51 31 99 76 49 46 119 111 156 145 37 34 67 70 67 80 0 10 -11 71 -25 135 -55
258 -92 548 -102 797 -6 154 -5 164 11 158 44 -17 295 -200 289 -211 -4 -6
-51 -71 -106 -144 -54 -73 -97 -139 -95 -146 5 -20 172 -296 180 -296 3 0 17
21 29 47 18 37 23 66 24 125 l0 76 107 119 c59 65 132 143 162 173 31 30 56
61 56 68 0 42 -157 301 -280 463 l-58 76 116 362 c63 198 119 361 123 361 14
0 122 -141 165 -217 42 -74 94 -197 108 -255 6 -25 3 -27 -47 -43 -28 -10 -56
-21 -60 -25 -9 -8 107 -276 120 -274 4 1 63 14 131 30 l122 27 0 102 c0 261
-94 545 -265 800 -67 101 -203 266 -224 273 -5 2 -45 -66 -88 -150 -130 -251
-281 -478 -467 -705 -113 -138 -504 -529 -516 -517 -10 10 -52 242 -74 410
-13 98 -32 356 -39 518 l-2 58 -52 -41 c-60 -48 -132 -136 -193 -236 -47 -76
-132 -264 -124 -276 2 -4 28 -15 57 -25 28 -9 54 -18 56 -20 6 -6 -114 -266
-125 -271 -6 -2 -62 9 -125 24 l-114 28 3 100 c8 321 160 698 407 1005 37 47
72 91 78 98 7 9 -178 12 -922 12 l-932 0 -14 -35z"/>
</g>
</svg>
